HIERARCHY
ROOT pelvis
{
  OFFSET 0 100 0
  CHANNELS 6 Xposition Yposition Zposition Zrotation Xrotation Yrotation
  JOINT pelvis_right_femur
  {
    OFFSET -10.78128 -3.44521 -0.5502486
    CHANNELS 3 Zrotation Xrotation Yrotation
    JOINT right_femur_tibia
    {
      OFFSET -0.8047443 -44.0398 -0.1307829
      CHANNELS 3 Zrotation Xrotation Yrotation
      JOINT right_tibia_foot
      {
        OFFSET 3.006224 -47.83518 -5
        CHANNELS 3 Zrotation Xrotation Yrotation
        End Site
        {
          OFFSET 0 -5 15
        }
      }
    }
  }
  JOINT pelvis_left_femur
  {
    OFFSET 10.78128 -3.44521 -0.5502486
    CHANNELS 3 Zrotation Xrotation Yrotation
    JOINT left_femur_tibia
    {
      OFFSET 0.8047443 -44.0398 -0.1307829
      CHANNELS 3 Zrotation Xrotation Yrotation
      JOINT left_tibia_foot
      {
        OFFSET -4.370144 -48.10324 -4.275266
        CHANNELS 3 Zrotation Xrotation Yrotation
        End Site
        {
          OFFSET 0 -5 15
        }
      }
    }
  }
  JOINT pelvis_spine1
  {
    OFFSET 0 6.468898 -3.129235
    CHANNELS 3 Zrotation Xrotation Yrotation
    JOINT spine1
    {
      OFFSET 0 23.15396 4.99043
      CHANNELS 3 Zrotation Xrotation Yrotation
      JOINT spine2
      {
        OFFSET 0 20.79997 -5.064912
        CHANNELS 3 Zrotation Xrotation Yrotation
        JOINT neck
        {
          OFFSET 0 14.38658 9.616178
          CHANNELS 3 Zrotation Xrotation Yrotation
          End Site
          {
            OFFSET 0 20 0
          }
        }
      }
      JOINT right_manubrium
      {
        OFFSET -5.722621 16.35077 3.967754
        CHANNELS 3 Zrotation Xrotation Yrotation
        JOINT right_clavicle
        {
          OFFSET -13.16364 1.694482 -4.693211
          CHANNELS 3 Zrotation Xrotation Yrotation
          JOINT right_humerus
          {
            OFFSET -28.5034 -0.3100689 -2.792744
            CHANNELS 3 Zrotation Xrotation Yrotation
            JOINT right_radius
            {
              OFFSET -25.15693 0.02248979 -1.271978
              CHANNELS 3 Zrotation Xrotation Yrotation
              End Site
              {
                OFFSET -15 0 0
              }
            }
          }
        }
      }
      JOINT left_manubrium
      {
        OFFSET 5.722621 16.35077 3.967754
        CHANNELS 3 Zrotation Xrotation Yrotation
        JOINT left_clavicle
        {
          OFFSET 13.16364 1.694482 -4.693211
          CHANNELS 3 Zrotation Xrotation Yrotation
          JOINT left_humerus
          {
            OFFSET 29.39168 -1.063119 -2.237045
            CHANNELS 3 Zrotation Xrotation Yrotation
            JOINT left_radius
            {
              OFFSET 24.59957 -0.9528479 0.9047498
              CHANNELS 3 Zrotation Xrotation Yrotation
              End Site
              {
                OFFSET 15 -0 -0
              }
            }
          }
        }
      }
    }
  }
}
MOTION
Frames: 11
Frame Time: 0.0416666666667
0 103.5113 0 2.562517 -2.777314 0.2543064 1.132154 -9.546298 7.978021 -0 37.00689 -0 -5.849786 -18.63138 -4.174531 -8.068242 11.4742 -23.92078 -0 4.367007 -0 9.332173 -15.47764 27.10818 -2.308568 -3.432589 6.008307 2.34647 10.86429 -6.959274 2.194626 22.70862 4.462436 1.174112 -25.03085 9.689677 5.981089 -20.28574 10.01917 86.57859 36.00817 -20.16406 -0 0 15.59355 -4.07735 7.903045 1.655278 5.022495 -20.47132 -2.258102 -96.14499 27.13922 25.59874 0 0 -14.10547 11.65832 17.64136 3.063694
0.2808436 103.4365 1.382075 1.98537 -1.343314 0.3301758 1.975209 -12.96836 8.573714 -0 37.44664 -0 -5.020541 -17.86329 -3.725242 -7.782344 11.30124 -23.86935 -0 4.207127 -0 8.087828 -16.50205 26.47315 -2.307189 -3.408367 6.057304 2.293681 10.86549 -6.881542 2.200652 22.75472 4.418266 1.166637 -24.91456 9.634419 5.965431 -20.28668 10.00024 86.46954 36.07398 -19.96174 -0 0 15.62153 -4.169292 7.919821 1.735542 4.980382 -20.41437 -2.277281 -96.16213 27.1426 25.65251 0 0 -14.01253 11.60754 17.63785 3.120361
0.5411914 103.3756 2.882436 1.299726 -0.167223 0.4433027 2.997246 -16.73565 8.738399 -0 37.03451 -0 -4.659172 -16.53713 -3.275561 -7.362233 11.23516 -23.4897 -0 4.338098 -0 6.694998 -17.75562 25.65789 -2.079635 -3.006956 5.606739 2.713233 10.71828 -7.383632 1.893528 21.97673 5.231084 1.807679 -25.52544 9.611462 5.9011 -19.65734 10.42852 86.92328 35.65972 -20.84452 -0 0 14.41254 -4.875795 8.416789 2.317451 5.433632 -20.86995 -2.146137 -94.86654 26.14484 23.9235 0 0 -16.04138 11.39492 16.18465 2.909764
0.7848255 103.2566 4.606811 0.5564848 0.7905259 0.5692137 4.168935 -20.87905 8.573212 -0 35.41563 -0 -4.729545 -14.65757 -2.882923 -6.86072 11.32021 -22.73118 -0 4.714877 -0 5.554704 -19.14508 24.77914 -1.995096 -2.85744 5.336975 2.976167 10.62963 -7.695419 1.751517 21.59613 5.643639 2.07226 -25.95515 9.701728 5.867693 -19.38031 10.634 87.28314 35.4571 -21.47117 -0 0 13.80092 -5.012552 8.590272 2.485104 5.660399 -21.12279 -2.070731 -94.22302 25.67909 23.04923 0 0 -17.16168 11.45903 15.50311 2.650008
1.019223 103.0025 6.647869 -0.1362531 1.533029 0.6946811 5.322197 -25.04775 8.148096 -0 32.48705 -0 -5.133185 -12.4113 -2.583344 -6.371863 11.60042 -21.69247 -0 5.241818 -0 4.800205 -20.59562 23.9151 -1.89115 -2.671226 5.041741 3.253447 10.51824 -8.021472 1.590759 21.17025 6.102352 2.382699 -26.37838 9.772794 5.814968 -19.04264 10.86051 87.64911 35.23892 -22.10145 -0 0 13.09668 -5.244315 8.81969 2.729144 5.917153 -21.40254 -1.98349 -93.48851 25.11912 22.04009 0 0 -18.42253 11.48426 14.7184 2.393966
1.250511 102.5547 9.091473 -0.6908248 2.134511 0.8303227 6.300893 -28.9339 7.502368 -0 28.34892 -0 -5.722263 -9.970784 -2.348044 -5.988813 12.10564 -20.50272 -0 5.873187 -0 4.442202 -22.02621 23.08671 -1.807316 -2.529558 4.787738 3.491761 10.41209 -8.30199 1.460875 20.81409 6.484971 2.633385 -26.74525 9.849888 5.766748 -18.76352 11.04348 87.96657 35.04924 -22.64684 -0 0 12.52134 -5.405691 9.006016 2.910919 6.141803 -21.64524 -1.894009 -92.89825 24.64886 21.20622 0 0 -19.47324 11.52356 14.09544 2.161308
1.481091 101.8972 12.01588 -1.067119 2.659632 1.018056 6.984957 -32.18943 6.675068 -0 23.51402 -0 -6.359545 -7.508917 -2.11671 -5.760794 12.82978 -19.31267 -0 6.692881 -0 4.272604 -23.28354 22.20846 -1.72025 -2.388901 4.55785 3.696989 10.30663 -8.54777 1.341872 20.48199 6.83284 2.87889 -27.03486 9.892175 5.715558 -18.48138 11.20808 88.22818 34.86214 -23.10475 -0 0 11.98577 -5.623784 9.212747 3.111388 6.3605 -21.87472 -1.801559 -92.36005 24.1929 20.42003 0 0 -20.41566 11.50316 13.53064 1.992369
1.711932 101.0797 15.48869 -1.311056 3.149482 1.318299 7.391834 -34.53687 5.797014 -0 18.86656 -0 -6.953813 -5.194049 -1.837701 -5.653009 13.69836 -18.23383 -0 7.958622 -0 3.942106 -24.10503 21.09871 -1.63415 -2.255431 4.363091 3.858196 10.21094 -8.747857 1.240126 20.19142 7.126618 3.106975 -27.22986 9.893918 5.666306 -18.20852 11.34617 88.42304 34.68426 -23.45733 -0 0 11.51337 -5.891518 9.431113 3.318625 6.561224 -22.0801 -1.713552 -91.89717 23.77908 19.71565 0 0 -21.19851 11.41978 13.05373 1.899744
1.94644 100.2221 19.55545 -1.541178 3.589939 1.779697 7.680259 -35.77219 5.084282 -0 15.41762 -0 -7.489549 -3.247537 -1.497349 -5.550411 14.54391 -17.29724 -0 10.06401 -0 3.087875 -24.12942 19.53996 -1.547701 -2.122644 4.211303 3.963266 10.13488 -8.890788 1.1577 19.95229 7.354217 3.317242 -27.30028 9.837084 5.621128 -17.94153 11.45479 88.53965 34.51945 -23.68245 -0 0 11.10232 -6.237114 9.668254 3.544482 6.734601 -22.25401 -1.642822 -91.50594 23.41662 19.09252 0 0 -21.79897 11.25145 12.6639 1.908139
2.192934 99.49379 24.22716 -1.886395 3.915916 2.401419 8.04597 -35.77548 4.715489 -0 13.85459 -0 -8.010805 -1.945911 -1.125405 -5.313601 15.10998 -16.42546 -0 13.44842 -0 1.523719 -22.98736 17.40071 -1.465451 -1.99097 4.117373 3.996279 10.09347 -8.958674 1.100489 19.78772 7.492891 3.496135 -27.21748 9.711078 5.583692 -17.69443 11.52642 88.5675 34.38169 -23.75268 -0 0 10.7711 -6.663702 9.913938 3.78842 6.859418 -22.37841 -1.610151 -91.19799 23.1332 18.58143 0 0 -22.17508 10.99326 12.37108 2.035831
2.463922 99.07469 29.47403 -2.394959 4.02953 3.100854 8.564278 -34.50345 4.677724 -0 14.14127 -0 -8.570538 -1.496347 -0.7909407 -4.861807 15.09977 -15.4388 -0 18.52119 -0 -0.6055513 -20.457 14.77485 -1.393361 -1.860119 4.098403 3.941202 10.10313 -8.931985 1.072965 19.72107 7.521329 3.629151 -26.95561 9.507633 5.555449 -17.48724 11.55556 88.49737 34.28628 -23.63787 -0 0 10.54211 -7.175109 10.15294 4.055955 6.910921 -22.43215 -1.64062 -90.98171 22.95411 18.21858 0 0 -22.29448 10.64369 12.17017 2.300713
